# xmcd CD Database Entry
#
# Track frame offsets:
# 150
# 18685
# 36922
# 50417
# 63365
# 83252
# 97487
# 121295
# 134310
# 159320
# 176650
# 187612
# 206267
# 217305
#
# Disc length: 3214 seconds
#
# Revision: 4
# Processed by: cddbd v1.4PL0 Copyright (c) Steve Scherf et al.
# Submitted via: tcd 2.0b
#
DISCID=bf0c8c0e
DTITLE=Дони and Момчил - Вторият!
DYEAR=1900
DGENRE=
TTITLE0=Малкият Принц
TTITLE1=Дива Роза
TTITLE2=Къщата на духовете
TTITLE3=Твоите очи
TTITLE4=Островът
TTITLE5=Нощта на просяка
TTITLE6=Утринна сянка (Импресия 1)
TTITLE7=Спящата тишина (Импресия 2)
TTITLE8=Сънят на славея
TTITLE9=Червената стая
TTITLE10=Я кажи ми, облаче ле бяло
TTITLE11=Малкият Принц (инструментал)
TTITLE12=Я кажи ми, облаче ле бяло (инструментал)
TTITLE13=Yoy're Always On My Mind (bonus track)
EXTD=Дони - вокали, бас китара и тамбура\nМомчил - клавишни, вокал
EXTD=и ипрограмиране\nбас китара: Краси Куртев - брас секция: Краси
EXTD=Кирилов - тромбон, Георги Велев - тромпет и Марин Панев - са
EXTD=ксофон;\n(P)1994\n
EXTT0=акустични и електрически китари: Иван Лечев
EXTT1=акустични китари: Дани Милев - цигулка: Николай Димитров - педъ
EXTT1=л стийл китара: Михаил Шишков
EXTT2=акустични и електрически китари: Иван Лечев - тромпет: Иво Каз
EXTT2=асов - барабани: Калин Вельов
EXTT3=акустични китари: Дани Милев - тромпет: Иво Казасов - цигулка: 
EXTT3=Николай Димитров
EXTT4=
EXTT5=
EXTT6=кавал: Теодосий Спасов - акустични китари и тамбура: Дани Миле
EXTT6=в;бас: Еко
EXTT7=
EXTT8=акустични и електрически китари: Иван Лечев - цигулка: Николай
EXTT8=Димитров - барабани: Калин Вельов - виолончело: Христо Кузмано
EXTT8=в
EXTT9=електрическа китара: Иван Градинаров
EXTT10=музика: трад. - текст: Ран Босилек
EXTT11=акустични и електрически китари: Иван Лечев
EXTT12=музика: трад.
EXTT13=текст и музика: J. Leiber and M. Stoller
PLAYORDER=
